<?xml version="1.0" encoding="UTF-8"?>
<!DOCTYPE svg PUBLIC "-//W3C//DTD SVG 1.1//EN" "http://www.w3.org/Graphics/SVG/1.1/DTD/svg11.dtd">
<svg xmlns="http://www.w3.org/2000/svg" version="1.1" width="200px" height="200px" style="shape-rendering:geometricPrecision; text-rendering:geometricPrecision; image-rendering:optimizeQuality; fill-rule:evenodd; clip-rule:evenodd" xmlns:xlink="http://www.w3.org/1999/xlink">
<g><path style="opacity:0.991" fill="#fefefe" d="M 18.5,1.5 C 72.501,1.33334 126.501,1.50001 180.5,2C 189.333,4.16667 194.833,9.66667 197,18.5C 197.667,72.5 197.667,126.5 197,180.5C 194.833,189.333 189.333,194.833 180.5,197C 126.5,197.667 72.5,197.667 18.5,197C 9.66667,194.833 4.16667,189.333 2,180.5C 1.33333,126.5 1.33333,72.5 2,18.5C 4.34928,9.65218 9.84928,3.98551 18.5,1.5 Z"/></g>
<g><path style="opacity:1" fill="#272928" d="M 112.5,131.5 C 110.833,131.5 109.167,131.5 107.5,131.5C 107.819,126.637 107.486,121.97 106.5,117.5C 106.389,116.883 106.056,116.383 105.5,116C 102.571,115.223 99.7372,115.39 97,116.5C 96.6667,125.5 96.3333,134.5 96,143.5C 93.2628,144.61 90.4294,144.777 87.5,144C 86.3385,115.572 86.1718,87.0719 87,58.5C 89.76,56.297 92.76,55.9637 96,57.5C 96.3333,63.8333 96.6667,70.1667 97,76.5C 104.905,80.8485 108.072,78.5152 106.5,69.5C 109.119,69.2317 111.619,69.565 114,70.5C 114.667,90.5 114.667,110.5 114,130.5C 113.617,131.056 113.117,131.389 112.5,131.5 Z"/></g>
<g><path style="opacity:1" fill="#272928" d="M 68.5,82.5 C 71.6852,82.0196 74.5185,82.6863 77,84.5C 77.6667,95.1667 77.6667,105.833 77,116.5C 74.24,118.703 71.24,119.036 68,117.5C 67.1894,105.757 67.3561,94.0907 68.5,82.5 Z"/></g>
<g><path style="opacity:1" fill="#eaebeb" d="M 98.5,83.5 C 101.685,83.0196 104.519,83.6863 107,85.5C 107.667,92.1667 107.667,98.8333 107,105.5C 103.952,109.01 100.619,109.343 97,106.5C 96.3333,99.5 96.3333,92.5 97,85.5C 97.7172,84.9558 98.2172,84.2891 98.5,83.5 Z"/></g>
<g><path style="opacity:1" fill="#282a29" d="M 127.5,89.5 C 130.365,89.0548 132.865,89.7215 135,91.5C 135.81,98.0816 135.643,104.582 134.5,111C 131.571,111.777 128.737,111.61 126,110.5C 125.333,104.167 125.333,97.8333 126,91.5C 126.717,90.9558 127.217,90.2891 127.5,89.5 Z"/></g>
<g><path style="opacity:1" fill="#2b2d2c" d="M 48.5,92.5 C 51.3646,92.0548 53.8646,92.7215 56,94.5C 56.6667,98.5 56.6667,102.5 56,106.5C 53.24,108.703 50.24,109.036 47,107.5C 45.9548,102.215 46.4548,97.2145 48.5,92.5 Z"/></g>
<g><path style="opacity:1" fill="#303231" d="M 145.5,96.5 C 149.883,95.7551 152.383,97.4218 153,101.5C 149.165,105.759 145.999,105.426 143.5,100.5C 143.752,98.9271 144.418,97.5938 145.5,96.5 Z"/></g>
<g><path style="opacity:1" fill="#838484" d="M 106.5,117.5 C 107.486,121.97 107.819,126.637 107.5,131.5C 109.167,131.5 110.833,131.5 112.5,131.5C 110.735,132.461 108.735,132.795 106.5,132.5C 106.5,127.5 106.5,122.5 106.5,117.5 Z"/></g>
</svg>
